<svg id="Layer_1" enable-background="new 0 0 512.002 512.002" height="512" viewBox="0 0 512.002 512.002" width="512" xmlns="http://www.w3.org/2000/svg"><g><g><path d="m479.501 447.002h-97.827c9.522-10.624 15.327-24.645 15.327-40 0-10.296-2.679-20.402-7.66-29.31 18.861-11.681 35.5-25.873 49.447-42.297 30.887-36.376 47.213-82.341 47.213-132.926 0-111.642-90.827-202.469-202.468-202.469-62.083 0-117.719 28.097-154.889 72.231h-34.283c-5.523 0-10 4.478-10 10s4.477 10 10 10h19.427c-6.18 9.484-11.585 19.514-16.13 30.002h-16.653c-5.523 0-10 4.478-10 10s4.477 10 10 10h9.207c-5.467 17.51-8.615 36.033-9.085 55.209h-16.767c-5.523 0-10 4.478-10 10s4.477 10 10 10h15.513c-3.472 18.748-14.668 25.941-35.27 35.301-8.14 3.698-14.161 10.534-16.956 19.247-2.874 8.96-1.952 18.875 2.464 26.523.052.09.105.179.159.267 21.317 34.407 52.363 63.049 90.167 83.312-3.48 7.593-5.437 16.024-5.437 24.909 0 15.356 5.805 29.377 15.327 40.001h-97.827c-17.92 0-32.5 14.579-32.5 32.5s14.58 32.5 32.5 32.5h447.001c17.921 0 32.5-14.579 32.5-32.5s-14.579-32.5-32.5-32.5zm-102.5-40c0 22.056-17.944 40-40 40-20.578 0-37.571-15.623-39.756-35.628 6.813-1.105 13.572-2.466 20.264-4.088 19.393-4.703 37.605-11.373 54.38-19.833 3.324 5.94 5.112 12.681 5.112 19.549zm-142.455 7.266c6.233.407 12.447.63 18.633.63 8.127 0 16.206-.353 24.225-1.053 1.445 12.66 6.839 24.135 14.925 33.157h-72.654c7.995-8.921 13.355-20.241 14.871-32.734zm-187.176-125.866c-1.538-2.757-1.805-6.784-.676-10.305.743-2.315 2.418-5.435 6.184-7.146 23.852-10.836 42.803-22.069 47.213-53.51h40.913c5.523 0 10-4.478 10-10s-4.477-10-10-10h-39.866c.525-19.294 4.067-37.845 10.157-55.209h93.072c5.523 0 10-4.478 10-10s-4.477-10-10-10h-84.684c5.222-10.621 11.446-20.662 18.549-30.002h43.004c5.523 0 10-4.478 10-10s-4.477-10-10-10h-25.363c32.931-32.286 78.007-52.23 127.66-52.23 100.613 0 182.469 81.855 182.469 182.469 0 91.432-58.705 162.465-153.205 185.379-25.55 6.195-52.16 8.311-79.192 6.317-5.896-26.935-29.925-47.163-58.603-47.163-16.973 0-32.31 7.095-43.235 18.462-35.504-18.628-64.587-45.152-84.397-77.062zm87.631 118.599c0-22.056 17.944-39.999 40-39.999s40 17.943 40 39.999c0 22.057-17.944 40.001-40 40.001s-40-17.944-40-40.001zm344.5 85.001h-447.001c-6.893 0-12.5-5.607-12.5-12.5s5.607-12.5 12.5-12.5h447.001c6.893 0 12.5 5.607 12.5 12.5s-5.607 12.5-12.5 12.5z"/><path d="m256.001 229.942c12.426 0 22.5-10.073 22.5-22.5s-10.073-22.5-22.5-22.5h-.007c-12.426 0-22.497 10.073-22.497 22.5s10.078 22.5 22.504 22.5z"/><path d="m386.005 229.942c12.427 0 22.5-10.073 22.5-22.5s-10.073-22.5-22.5-22.5h-.007c-12.427 0-22.496 10.073-22.496 22.5s10.077 22.5 22.503 22.5z"/><path d="m259.709 256.974c-4.783 2.761-6.422 8.877-3.661 13.66 13.354 23.131 38.242 37.5 64.951 37.5s51.597-14.369 64.95-37.5c2.762-4.783 1.123-10.899-3.66-13.66-4.785-2.761-10.9-1.122-13.66 3.66-9.793 16.963-28.043 27.5-47.63 27.5s-37.837-10.537-47.63-27.5c-2.758-4.782-8.872-6.421-13.66-3.66z"/><path d="m175.001 397.002h-.007c-5.523 0-9.997 4.478-9.997 10s4.481 10 10.004 10 10-4.478 10-10-4.477-10-10-10z"/><path d="m36.009 142.233c5.523 0 10-4.478 10-10s-4.477-10-10-10h-.007c-5.523 0-9.997 4.478-9.997 10s4.481 10 10.004 10z"/></g></g></svg>