<svg id="Capa_1" enable-background="new 0 0 512 512" height="512" viewBox="0 0 512 512" width="512" xmlns="http://www.w3.org/2000/svg"><g><g><ellipse cx="352.006" cy="440.012" fill="#61cfe5" rx="64.004" ry="64.004" transform="matrix(.707 -.707 .707 .707 -208.035 377.782)"/></g><g><path d="m7.984 320.004c26.511 0 48.003-21.492 48.003-48.003v-40.002c0-123.72 100.294-224.014 224.014-224.014s224.014 100.295 224.014 224.014-100.294 224.014-224.014 224.014c-232.014 0-272.017-136.009-272.017-136.009z" fill="#bef2f5"/></g><g><path d="m302.884 9.121c-66.977-6.641-128.68 16.25-173.651 57.198 8.275 9.784 22.719 11.64 33.066 4.081 38.024-27.778 86.167-42.49 137.781-37.428 96.353 9.45 173.043 88.813 179.481 185.414 3.722 55.851-15.659 107.246-49.481 145.633-7.71 8.751-8.695 21.518-1.891 30.991l2.177 3.032c50.844-46.07 80.441-115.162 72.317-190.829-11.185-104.176-95.536-187.753-199.799-198.092z" fill="#fff"/></g><path d="m512 231.998c0-61.969-24.132-120.229-67.95-164.048s-102.079-67.95-164.048-67.95-120.229 24.132-164.048 67.95c-43.819 43.819-67.951 102.079-67.951 164.048v40.003c0 22.066-17.952 40.018-40.019 40.018-2.517 0-4.885 1.186-6.393 3.201s-1.977 4.623-1.267 7.037c.435 1.479 11.121 36.64 51.416 71.769 23.413 20.411 52.09 36.652 85.236 48.27 41.081 14.4 89.202 21.701 143.025 21.701 1.384 0 2.764-.026 4.144-.051 9.887 27.959 36.557 48.054 67.86 48.054 39.695 0 71.988-32.293 71.988-71.988 0-8.085-1.352-15.856-3.824-23.115 8.349-6.356 16.333-13.304 23.88-20.85 43.819-43.82 67.951-102.079 67.951-164.049zm-103.975 208.014c0 30.889-25.131 56.02-56.02 56.02-22.677 0-42.229-13.555-51.03-32.979 37.9-3.374 73.891-15.873 105.408-36.429 1.062 4.292 1.642 8.771 1.642 13.388zm-128.023 8.016c-51.667 0-97.741-6.906-136.944-20.523-31.154-10.823-58.062-25.888-79.974-44.779-23.547-20.3-37.395-42.08-43.838-55.875 25.492-5.228 44.726-27.835 44.726-54.85v-40.003c0-57.704 22.471-111.953 63.274-152.755 40.803-40.803 95.053-63.274 152.756-63.274 57.704 0 111.953 22.471 152.755 63.274 40.803 40.802 63.274 95.052 63.274 152.755 0 57.704-22.471 111.954-63.274 152.756-40.802 40.804-95.051 63.274-152.755 63.274z" fill="#00abd5"/><g><path d="m280.002 463.997c-53.823 0-101.944-7.301-143.025-21.701-33.145-11.618-61.823-27.859-85.236-48.27-40.296-35.128-50.981-70.289-51.416-71.769-.71-2.414-.241-5.022 1.267-7.037 1.507-2.015 3.877-3.201 6.393-3.201 22.066 0 40.019-17.952 40.019-40.018 0-4.409 3.575-7.984 7.984-7.984 4.41 0 7.984 3.575 7.984 7.984 0 26.988-19.194 49.578-44.649 54.833 1.457 3.128 3.401 6.941 5.928 11.246 6.522 11.111 18.381 27.876 37.832 44.646 21.912 18.891 48.82 33.956 79.974 44.779 39.203 13.618 85.278 20.523 136.944 20.523 4.409 0 7.984 3.575 7.984 7.984.001 4.41-3.574 7.985-7.983 7.985z" fill="#283246"/></g><g><ellipse cx="167.994" cy="440.012" fill="#61cfe5" rx="64.004" ry="64.004" transform="matrix(.236 -.972 .972 .236 -299.248 499.317)"/></g><g><path d="m167.995 512c-39.695 0-71.989-32.293-71.989-71.988s32.294-71.988 71.989-71.988 71.988 32.293 71.988 71.988-32.294 71.988-71.988 71.988zm0-128.008c-30.889 0-56.02 25.131-56.02 56.02s25.131 56.02 56.02 56.02 56.02-25.131 56.02-56.02-25.131-56.02-56.02-56.02z" fill="#283246"/></g><g><path d="m167.995 479.998c-22.049 0-39.986-17.938-39.986-39.986s17.938-39.986 39.986-39.986c22.049 0 39.986 17.938 39.986 39.986s-17.938 39.986-39.986 39.986zm0-64.004c-13.243 0-24.018 10.774-24.018 24.018s10.774 24.017 24.018 24.017c13.243 0 24.018-10.774 24.018-24.017-.001-13.244-10.775-24.018-24.018-24.018z" fill="#00abd5"/></g><g><path d="m312.004 327.988c-40.44 0-77.513-23.808-94.449-60.653-1.842-4.007-.086-8.748 3.92-10.589 4.009-1.844 8.748-.088 10.59 3.92 14.339 31.196 45.717 51.353 79.939 51.353s65.599-20.157 79.939-51.353c1.842-4.008 6.585-5.76 10.589-3.92 4.007 1.841 5.762 6.582 3.92 10.589-16.935 36.845-54.008 60.653-94.448 60.653z" fill="#00abd5"/></g><g><path d="m235.999 207.981c-15.431 0-27.985-12.555-27.985-27.985s12.554-27.985 27.985-27.985 27.986 12.555 27.986 27.985-12.555 27.985-27.986 27.985zm0-40.002c-6.626 0-12.016 5.391-12.016 12.017s5.391 12.017 12.016 12.017c6.626 0 12.017-5.391 12.017-12.017 0-6.627-5.391-12.017-12.017-12.017z" fill="#283246"/></g><g><path d="m388.009 207.981c-15.432 0-27.986-12.555-27.986-27.985s12.555-27.985 27.986-27.985 27.985 12.555 27.985 27.985-12.554 27.985-27.985 27.985zm0-40.002c-6.627 0-12.018 5.391-12.018 12.017s5.391 12.017 12.018 12.017c6.626 0 12.017-5.391 12.017-12.017-.001-6.627-5.391-12.017-12.017-12.017z" fill="#283246"/></g><g><path d="m167.995 479.998c-22.049 0-39.986-17.938-39.986-39.986 0-4.409 3.575-7.984 7.984-7.984 4.41 0 7.984 3.575 7.984 7.984 0 13.244 10.774 24.017 24.018 24.017 4.41 0 7.984 3.575 7.984 7.984 0 4.41-3.574 7.985-7.984 7.985z" fill="#283246"/></g></g></svg>